<mxfile host="app.diagrams.net" modified="2023-05-30T10:04:26.733Z" agent="Mozilla/5.0 (Windows NT 10.0; Win64; x64) AppleWebKit/537.36 (KHTML, like Gecko) Chrome/113.0.0.0 Safari/537.36" etag="wQaSwqo5cSQhPN0Wu5x4" version="21.2.9" type="device">
  <diagram name="Page-1" id="upXswrnmB_EBBKfPLdJL">
    <mxGraphModel dx="2226" dy="934" grid="1" gridSize="10" guides="1" tooltips="1" connect="1" arrows="1" fold="1" page="1" pageScale="1" pageWidth="827" pageHeight="1169" math="0" shadow="0">
      <root>
        <mxCell id="0" />
        <mxCell id="1" parent="0" />
        <mxCell id="uNAQz5ljaHoNYNFkJFMW-2" value="" style="rounded=0;whiteSpace=wrap;html=1;" parent="1" vertex="1">
          <mxGeometry x="250" y="80" width="130" height="40" as="geometry" />
        </mxCell>
        <mxCell id="uNAQz5ljaHoNYNFkJFMW-3" value="vue.Main" style="text;html=1;strokeColor=none;fillColor=none;align=center;verticalAlign=middle;whiteSpace=wrap;rounded=0;" parent="1" vertex="1">
          <mxGeometry x="285" y="85" width="60" height="30" as="geometry" />
        </mxCell>
        <mxCell id="uNAQz5ljaHoNYNFkJFMW-4" value="" style="rounded=0;whiteSpace=wrap;html=1;" parent="1" vertex="1">
          <mxGeometry x="30" y="80" width="130" height="40" as="geometry" />
        </mxCell>
        <mxCell id="uNAQz5ljaHoNYNFkJFMW-5" value="&amp;lt;&amp;lt;Actor&amp;gt;&amp;gt;&lt;br&gt;Government Employee" style="text;html=1;strokeColor=none;fillColor=none;align=center;verticalAlign=middle;whiteSpace=wrap;rounded=0;" parent="1" vertex="1">
          <mxGeometry x="57.5" y="85" width="75" height="30" as="geometry" />
        </mxCell>
        <mxCell id="uNAQz5ljaHoNYNFkJFMW-6" value="" style="endArrow=classic;html=1;rounded=0;entryX=0.967;entryY=-0.25;entryDx=0;entryDy=0;entryPerimeter=0;exitX=0.024;exitY=0;exitDx=0;exitDy=0;exitPerimeter=0;" parent="1" target="uNAQz5ljaHoNYNFkJFMW-35" edge="1">
          <mxGeometry width="50" height="50" relative="1" as="geometry">
            <mxPoint x="95.27999999999997" y="150" as="sourcePoint" />
            <mxPoint x="230" y="150" as="targetPoint" />
          </mxGeometry>
        </mxCell>
        <mxCell id="uNAQz5ljaHoNYNFkJFMW-35" value="" style="rounded=0;whiteSpace=wrap;html=1;rotation=-90;" parent="1" vertex="1">
          <mxGeometry x="148.75" y="301.25" width="332.5" height="10" as="geometry" />
        </mxCell>
        <mxCell id="uNAQz5ljaHoNYNFkJFMW-50" value="" style="endArrow=classic;html=1;rounded=0;" parent="1" edge="1">
          <mxGeometry width="50" height="50" relative="1" as="geometry">
            <mxPoint x="320" y="180" as="sourcePoint" />
            <mxPoint x="530" y="180" as="targetPoint" />
          </mxGeometry>
        </mxCell>
        <mxCell id="uNAQz5ljaHoNYNFkJFMW-51" value="meanAirQuality(lat,long&lt;br&gt;radius,TimeStampStart,TimeStampEnd)" style="text;html=1;strokeColor=none;fillColor=none;align=center;verticalAlign=middle;whiteSpace=wrap;rounded=0;" parent="1" vertex="1">
          <mxGeometry x="390.63" y="190" width="60" height="30" as="geometry" />
        </mxCell>
        <mxCell id="uNAQz5ljaHoNYNFkJFMW-96" value="" style="endArrow=none;dashed=1;html=1;dashPattern=1 3;strokeWidth=2;rounded=0;" parent="1" edge="1">
          <mxGeometry width="50" height="50" relative="1" as="geometry">
            <mxPoint x="320" y="425" as="sourcePoint" />
            <mxPoint x="530" y="425" as="targetPoint" />
          </mxGeometry>
        </mxCell>
        <mxCell id="uNAQz5ljaHoNYNFkJFMW-97" value="" style="endArrow=none;html=1;rounded=0;" parent="1" edge="1">
          <mxGeometry width="50" height="50" relative="1" as="geometry">
            <mxPoint x="320" y="425" as="sourcePoint" />
            <mxPoint x="330" y="415" as="targetPoint" />
          </mxGeometry>
        </mxCell>
        <mxCell id="uNAQz5ljaHoNYNFkJFMW-98" value="" style="endArrow=none;html=1;rounded=0;" parent="1" edge="1">
          <mxGeometry width="50" height="50" relative="1" as="geometry">
            <mxPoint x="320" y="425" as="sourcePoint" />
            <mxPoint x="330" y="435" as="targetPoint" />
            <Array as="points">
              <mxPoint x="330" y="435" />
            </Array>
          </mxGeometry>
        </mxCell>
        <mxCell id="uNAQz5ljaHoNYNFkJFMW-99" value="return" style="text;html=1;strokeColor=none;fillColor=none;align=center;verticalAlign=middle;whiteSpace=wrap;rounded=0;" parent="1" vertex="1">
          <mxGeometry x="389" y="430" width="60" height="30" as="geometry" />
        </mxCell>
        <mxCell id="uNAQz5ljaHoNYNFkJFMW-100" value="" style="endArrow=classic;html=1;rounded=0;exitX=0.459;exitY=-0.383;exitDx=0;exitDy=0;exitPerimeter=0;" parent="1" edge="1">
          <mxGeometry width="50" height="50" relative="1" as="geometry">
            <mxPoint x="310" y="425" as="sourcePoint" />
            <mxPoint x="100" y="425" as="targetPoint" />
          </mxGeometry>
        </mxCell>
        <mxCell id="uNAQz5ljaHoNYNFkJFMW-101" value="Displays the mean" style="text;html=1;strokeColor=none;fillColor=none;align=center;verticalAlign=middle;whiteSpace=wrap;rounded=0;" parent="1" vertex="1">
          <mxGeometry x="159" y="435" width="125" height="30" as="geometry" />
        </mxCell>
        <mxCell id="uNAQz5ljaHoNYNFkJFMW-102" value="" style="endArrow=none;dashed=1;html=1;dashPattern=1 3;strokeWidth=2;rounded=0;entryX=0.5;entryY=1;entryDx=0;entryDy=0;" parent="1" target="uNAQz5ljaHoNYNFkJFMW-4" edge="1">
          <mxGeometry width="50" height="50" relative="1" as="geometry">
            <mxPoint x="95" y="470" as="sourcePoint" />
            <mxPoint x="100" y="130" as="targetPoint" />
          </mxGeometry>
        </mxCell>
        <mxCell id="uNAQz5ljaHoNYNFkJFMW-104" value="1 : Requests the air quality of an area" style="text;html=1;strokeColor=none;fillColor=none;align=center;verticalAlign=middle;whiteSpace=wrap;rounded=0;" parent="1" vertex="1">
          <mxGeometry x="95" y="155" width="220" height="30" as="geometry" />
        </mxCell>
        <mxCell id="uNAQz5ljaHoNYNFkJFMW-105" value="" style="endArrow=none;dashed=1;html=1;dashPattern=1 3;strokeWidth=2;rounded=0;entryX=0.5;entryY=1;entryDx=0;entryDy=0;exitX=1;exitY=0.5;exitDx=0;exitDy=0;" parent="1" source="uNAQz5ljaHoNYNFkJFMW-35" target="uNAQz5ljaHoNYNFkJFMW-2" edge="1">
          <mxGeometry width="50" height="50" relative="1" as="geometry">
            <mxPoint x="240" y="180" as="sourcePoint" />
            <mxPoint x="290" y="130" as="targetPoint" />
          </mxGeometry>
        </mxCell>
        <mxCell id="fpZSIVspdWtarArvt9D1-21" value="" style="rounded=0;whiteSpace=wrap;html=1;" parent="1" vertex="1">
          <mxGeometry x="450" y="80" width="170" height="40" as="geometry" />
        </mxCell>
        <mxCell id="fpZSIVspdWtarArvt9D1-22" value="Controller.Service" style="text;html=1;strokeColor=none;fillColor=none;align=center;verticalAlign=middle;whiteSpace=wrap;rounded=0;" parent="1" vertex="1">
          <mxGeometry x="505.62" y="85" width="60" height="30" as="geometry" />
        </mxCell>
        <mxCell id="fpZSIVspdWtarArvt9D1-23" value="" style="rounded=0;whiteSpace=wrap;html=1;rotation=-90;" parent="1" vertex="1">
          <mxGeometry x="385.95" y="317.83000000000004" width="299.37" height="10" as="geometry" />
        </mxCell>
        <mxCell id="fpZSIVspdWtarArvt9D1-24" value="" style="endArrow=none;dashed=1;html=1;dashPattern=1 3;strokeWidth=2;rounded=0;exitX=1;exitY=0.5;exitDx=0;exitDy=0;entryX=0.5;entryY=1.036;entryDx=0;entryDy=0;entryPerimeter=0;" parent="1" source="fpZSIVspdWtarArvt9D1-23" target="fpZSIVspdWtarArvt9D1-21" edge="1">
          <mxGeometry width="50" height="50" relative="1" as="geometry">
            <mxPoint x="530.62" y="140" as="sourcePoint" />
            <mxPoint x="580.62" y="90" as="targetPoint" />
          </mxGeometry>
        </mxCell>
        <mxCell id="fpZSIVspdWtarArvt9D1-25" value="" style="rounded=0;whiteSpace=wrap;html=1;" parent="1" vertex="1">
          <mxGeometry x="640" y="80" width="170" height="40" as="geometry" />
        </mxCell>
        <mxCell id="fpZSIVspdWtarArvt9D1-26" value="Model.SensorFunctions sensorFunctions" style="text;html=1;strokeColor=none;fillColor=none;align=center;verticalAlign=middle;whiteSpace=wrap;rounded=0;" parent="1" vertex="1">
          <mxGeometry x="695.62" y="85" width="60" height="30" as="geometry" />
        </mxCell>
        <mxCell id="fpZSIVspdWtarArvt9D1-29" value="" style="rounded=0;whiteSpace=wrap;html=1;rotation=-90;" parent="1" vertex="1">
          <mxGeometry x="578.45" y="320.33000000000004" width="294.37" height="10" as="geometry" />
        </mxCell>
        <mxCell id="fpZSIVspdWtarArvt9D1-37" value="Calculate the mean with the provided data" style="text;html=1;strokeColor=none;fillColor=none;align=center;verticalAlign=middle;whiteSpace=wrap;rounded=0;" parent="1" vertex="1">
          <mxGeometry x="732.82" y="410" width="177.18" height="30" as="geometry" />
        </mxCell>
        <mxCell id="fpZSIVspdWtarArvt9D1-39" value="" style="endArrow=none;dashed=1;html=1;dashPattern=1 3;strokeWidth=2;rounded=0;exitX=1;exitY=0.5;exitDx=0;exitDy=0;entryX=0.5;entryY=1.036;entryDx=0;entryDy=0;entryPerimeter=0;" parent="1" source="fpZSIVspdWtarArvt9D1-29" target="fpZSIVspdWtarArvt9D1-25" edge="1">
          <mxGeometry width="50" height="50" relative="1" as="geometry">
            <mxPoint x="720.62" y="140" as="sourcePoint" />
            <mxPoint x="770.62" y="90" as="targetPoint" />
          </mxGeometry>
        </mxCell>
        <mxCell id="fpZSIVspdWtarArvt9D1-44" value="" style="endArrow=classic;html=1;rounded=0;exitX=0.933;exitY=1.337;exitDx=0;exitDy=0;exitPerimeter=0;" parent="1" source="fpZSIVspdWtarArvt9D1-23" edge="1">
          <mxGeometry width="50" height="50" relative="1" as="geometry">
            <mxPoint x="560" y="262.75" as="sourcePoint" />
            <mxPoint x="720" y="193" as="targetPoint" />
          </mxGeometry>
        </mxCell>
        <mxCell id="fpZSIVspdWtarArvt9D1-45" value="meanAirQuality&lt;br&gt;(lat,long,radius,TimeStampStart&lt;br&gt;,TimeStampEnd)" style="text;html=1;strokeColor=none;fillColor=none;align=center;verticalAlign=middle;whiteSpace=wrap;rounded=0;" parent="1" vertex="1">
          <mxGeometry x="555.62" y="205.32999999999998" width="140" height="30" as="geometry" />
        </mxCell>
        <mxCell id="fpZSIVspdWtarArvt9D1-48" value="" style="endArrow=none;dashed=1;html=1;dashPattern=1 3;strokeWidth=2;rounded=0;entryX=0.5;entryY=0;entryDx=0;entryDy=0;" parent="1" edge="1">
          <mxGeometry width="50" height="50" relative="1" as="geometry">
            <mxPoint x="538.62" y="430" as="sourcePoint" />
            <mxPoint x="727.5" y="430" as="targetPoint" />
          </mxGeometry>
        </mxCell>
        <mxCell id="fpZSIVspdWtarArvt9D1-49" value="" style="endArrow=none;html=1;rounded=0;" parent="1" edge="1">
          <mxGeometry width="50" height="50" relative="1" as="geometry">
            <mxPoint x="538.62" y="430" as="sourcePoint" />
            <mxPoint x="548.62" y="420" as="targetPoint" />
          </mxGeometry>
        </mxCell>
        <mxCell id="fpZSIVspdWtarArvt9D1-50" value="" style="endArrow=none;html=1;rounded=0;" parent="1" edge="1">
          <mxGeometry width="50" height="50" relative="1" as="geometry">
            <mxPoint x="538.62" y="430" as="sourcePoint" />
            <mxPoint x="548.62" y="440" as="targetPoint" />
            <Array as="points">
              <mxPoint x="548.62" y="440" />
            </Array>
          </mxGeometry>
        </mxCell>
        <mxCell id="fpZSIVspdWtarArvt9D1-51" value="return" style="text;html=1;strokeColor=none;fillColor=none;align=center;verticalAlign=middle;whiteSpace=wrap;rounded=0;" parent="1" vertex="1">
          <mxGeometry x="607.62" y="435" width="60" height="30" as="geometry" />
        </mxCell>
        <mxCell id="fpZSIVspdWtarArvt9D1-52" value="" style="rounded=0;whiteSpace=wrap;html=1;rotation=-90;" parent="1" vertex="1">
          <mxGeometry x="867.82" y="225.33" width="75.63" height="10" as="geometry" />
        </mxCell>
        <mxCell id="fpZSIVspdWtarArvt9D1-53" value="" style="endArrow=none;dashed=1;html=1;dashPattern=1 3;strokeWidth=2;rounded=0;entryX=0.551;entryY=0.997;entryDx=0;entryDy=0;entryPerimeter=0;" parent="1" target="fpZSIVspdWtarArvt9D1-54" edge="1">
          <mxGeometry width="50" height="50" relative="1" as="geometry">
            <mxPoint x="905" y="190" as="sourcePoint" />
            <mxPoint x="905.3499999999999" y="111.88" as="targetPoint" />
          </mxGeometry>
        </mxCell>
        <mxCell id="fpZSIVspdWtarArvt9D1-54" value="" style="rounded=0;whiteSpace=wrap;html=1;" parent="1" vertex="1">
          <mxGeometry x="830.6199999999999" y="80" width="139.38" height="40" as="geometry" />
        </mxCell>
        <mxCell id="fpZSIVspdWtarArvt9D1-55" value="Model.Sensor&lt;br&gt;(Class) aSensor" style="text;html=1;strokeColor=none;fillColor=none;align=center;verticalAlign=middle;whiteSpace=wrap;rounded=0;" parent="1" vertex="1">
          <mxGeometry x="860.31" y="85" width="80" height="32.5" as="geometry" />
        </mxCell>
        <mxCell id="fpZSIVspdWtarArvt9D1-56" value="" style="endArrow=classic;html=1;rounded=0;exitX=0.895;exitY=0.937;exitDx=0;exitDy=0;exitPerimeter=0;" parent="1" source="fpZSIVspdWtarArvt9D1-29" edge="1">
          <mxGeometry width="50" height="50" relative="1" as="geometry">
            <mxPoint x="742" y="307.12" as="sourcePoint" />
            <mxPoint x="900" y="210" as="targetPoint" />
          </mxGeometry>
        </mxCell>
        <mxCell id="fpZSIVspdWtarArvt9D1-57" value="getMeasurements()&lt;br&gt;for each Sensor s[i] of the sensors list" style="text;html=1;strokeColor=none;fillColor=none;align=center;verticalAlign=middle;whiteSpace=wrap;rounded=0;" parent="1" vertex="1">
          <mxGeometry x="755" y="210" width="130" height="50" as="geometry" />
        </mxCell>
        <mxCell id="fpZSIVspdWtarArvt9D1-60" value="" style="rounded=0;whiteSpace=wrap;html=1;rotation=-90;" parent="1" vertex="1">
          <mxGeometry x="950" y="351.88" width="231.25" height="10" as="geometry" />
        </mxCell>
        <mxCell id="fpZSIVspdWtarArvt9D1-61" value="" style="endArrow=none;dashed=1;html=1;dashPattern=1 3;strokeWidth=2;rounded=0;" parent="1" edge="1">
          <mxGeometry width="50" height="50" relative="1" as="geometry">
            <mxPoint x="1065.35" y="231.88" as="sourcePoint" />
            <mxPoint x="1065.35" y="111.88" as="targetPoint" />
          </mxGeometry>
        </mxCell>
        <mxCell id="fpZSIVspdWtarArvt9D1-62" value="" style="rounded=0;whiteSpace=wrap;html=1;" parent="1" vertex="1">
          <mxGeometry x="990.6199999999999" y="80" width="139.38" height="40" as="geometry" />
        </mxCell>
        <mxCell id="fpZSIVspdWtarArvt9D1-63" value="Model.Measurments&lt;br&gt;m[i] (i : 1 -&amp;gt;n)" style="text;html=1;strokeColor=none;fillColor=none;align=center;verticalAlign=middle;whiteSpace=wrap;rounded=0;" parent="1" vertex="1">
          <mxGeometry x="1025.78" y="86.25" width="79.69" height="30" as="geometry" />
        </mxCell>
        <mxCell id="fpZSIVspdWtarArvt9D1-64" value="" style="endArrow=none;dashed=1;html=1;dashPattern=1 3;strokeWidth=2;rounded=0;" parent="1" edge="1">
          <mxGeometry width="50" height="50" relative="1" as="geometry">
            <mxPoint x="730.62" y="260" as="sourcePoint" />
            <mxPoint x="900" y="260" as="targetPoint" />
          </mxGeometry>
        </mxCell>
        <mxCell id="fpZSIVspdWtarArvt9D1-65" value="" style="endArrow=none;html=1;rounded=0;exitX=0.722;exitY=1.036;exitDx=0;exitDy=0;exitPerimeter=0;" parent="1" source="fpZSIVspdWtarArvt9D1-29" edge="1">
          <mxGeometry width="50" height="50" relative="1" as="geometry">
            <mxPoint x="730.62" y="370" as="sourcePoint" />
            <mxPoint x="740" y="250" as="targetPoint" />
          </mxGeometry>
        </mxCell>
        <mxCell id="fpZSIVspdWtarArvt9D1-66" value="" style="endArrow=none;html=1;rounded=0;" parent="1" edge="1">
          <mxGeometry width="50" height="50" relative="1" as="geometry">
            <mxPoint x="730" y="260" as="sourcePoint" />
            <mxPoint x="740" y="270" as="targetPoint" />
            <Array as="points" />
          </mxGeometry>
        </mxCell>
        <mxCell id="fpZSIVspdWtarArvt9D1-71" value="return&amp;nbsp;" style="text;html=1;strokeColor=none;fillColor=none;align=center;verticalAlign=middle;whiteSpace=wrap;rounded=0;" parent="1" vertex="1">
          <mxGeometry x="860.62" y="387" width="70" height="30" as="geometry" />
        </mxCell>
        <mxCell id="BrdfvueKWf5n-RZxys98-1" value="return&amp;nbsp;" style="text;html=1;strokeColor=none;fillColor=none;align=center;verticalAlign=middle;whiteSpace=wrap;rounded=0;" parent="1" vertex="1">
          <mxGeometry x="782.5" y="260" width="70" height="30" as="geometry" />
        </mxCell>
        <mxCell id="BrdfvueKWf5n-RZxys98-6" value="getTimestamp() (called multiple times to find the right measurements)" style="text;html=1;strokeColor=none;fillColor=none;align=center;verticalAlign=middle;whiteSpace=wrap;rounded=0;" parent="1" vertex="1">
          <mxGeometry x="790.31" y="287.83000000000004" width="240" height="30" as="geometry" />
        </mxCell>
        <mxCell id="BrdfvueKWf5n-RZxys98-7" value="" style="endArrow=classic;html=1;rounded=0;" parent="1" edge="1">
          <mxGeometry width="50" height="50" relative="1" as="geometry">
            <mxPoint x="735" y="317.83" as="sourcePoint" />
            <mxPoint x="1055" y="317.83" as="targetPoint" />
          </mxGeometry>
        </mxCell>
        <mxCell id="BrdfvueKWf5n-RZxys98-10" value="" style="endArrow=none;dashed=1;html=1;dashPattern=1 3;strokeWidth=2;rounded=0;exitX=0.446;exitY=1.378;exitDx=0;exitDy=0;exitPerimeter=0;entryX=0.558;entryY=-0.207;entryDx=0;entryDy=0;entryPerimeter=0;" parent="1" source="fpZSIVspdWtarArvt9D1-29" target="fpZSIVspdWtarArvt9D1-60" edge="1">
          <mxGeometry width="50" height="50" relative="1" as="geometry">
            <mxPoint x="661" y="490" as="sourcePoint" />
            <mxPoint x="980" y="490" as="targetPoint" />
            <Array as="points" />
          </mxGeometry>
        </mxCell>
        <mxCell id="BrdfvueKWf5n-RZxys98-11" value="return&amp;nbsp; for these calls" style="text;html=1;strokeColor=none;fillColor=none;align=center;verticalAlign=middle;whiteSpace=wrap;rounded=0;" parent="1" vertex="1">
          <mxGeometry x="830.62" y="320.33000000000004" width="130" height="30" as="geometry" />
        </mxCell>
        <mxCell id="BrdfvueKWf5n-RZxys98-13" value="" style="endArrow=none;html=1;rounded=0;" parent="1" edge="1">
          <mxGeometry width="50" height="50" relative="1" as="geometry">
            <mxPoint x="730" y="340" as="sourcePoint" />
            <mxPoint x="750" y="330" as="targetPoint" />
          </mxGeometry>
        </mxCell>
        <mxCell id="BrdfvueKWf5n-RZxys98-14" value="" style="endArrow=none;html=1;rounded=0;" parent="1" edge="1">
          <mxGeometry width="50" height="50" relative="1" as="geometry">
            <mxPoint x="730" y="340" as="sourcePoint" />
            <mxPoint x="750" y="350" as="targetPoint" />
          </mxGeometry>
        </mxCell>
        <mxCell id="BrdfvueKWf5n-RZxys98-15" value="" style="endArrow=classic;html=1;rounded=0;" parent="1" edge="1">
          <mxGeometry width="50" height="50" relative="1" as="geometry">
            <mxPoint x="730" y="362.88" as="sourcePoint" />
            <mxPoint x="1060" y="362" as="targetPoint" />
          </mxGeometry>
        </mxCell>
        <mxCell id="BrdfvueKWf5n-RZxys98-16" value="&lt;div&gt;getValueO3(), getValueNO2(), getValueSO2, getValuePM10()&lt;br&gt;&lt;/div&gt;" style="text;html=1;strokeColor=none;fillColor=none;align=center;verticalAlign=middle;whiteSpace=wrap;rounded=0;" parent="1" vertex="1">
          <mxGeometry x="730" y="356" width="330" height="30" as="geometry" />
        </mxCell>
        <mxCell id="BrdfvueKWf5n-RZxys98-19" value="." style="endArrow=open;endSize=12;dashed=1;html=1;rounded=0;entryX=0.286;entryY=1.265;entryDx=0;entryDy=0;entryPerimeter=0;exitX=0.367;exitY=-0.02;exitDx=0;exitDy=0;exitPerimeter=0;" parent="1" source="fpZSIVspdWtarArvt9D1-60" target="fpZSIVspdWtarArvt9D1-29" edge="1">
          <mxGeometry width="160" relative="1" as="geometry">
            <mxPoint x="690" y="370" as="sourcePoint" />
            <mxPoint x="590" y="370" as="targetPoint" />
          </mxGeometry>
        </mxCell>
        <mxCell id="6_7mXPzkADa1COoJqupQ-1" value="Mean Air Quality within an area" style="text;strokeColor=none;fillColor=none;html=1;fontSize=24;fontStyle=1;verticalAlign=middle;align=center;" parent="1" vertex="1">
          <mxGeometry x="587.62" y="26" width="100" height="40" as="geometry" />
        </mxCell>
      </root>
    </mxGraphModel>
  </diagram>
</mxfile>
